P1
# Created by GIMP version 2.10.18 PNM plug-in
8 8
1111111110100101101101011011010110000001101101111000000111111111