P1
# Created by GIMP version 2.10.30 PNM plug-in
20 20
1111111111111111111110100010000001000001101110101101010010011010100001
0101111011101011110101000000011000000101011101111111111011010001000001
1000101001011111101110111011110100000001100010010000011101111010101101
1111010101101110100000010101011000001011110101010111101010100101010001
1010101000110101110110101011111001000101101110000000110101011000001111
10110101011011101000000001000111111111111111111111