P1
# Created by GIMP version 2.10.30 PNM plug-in
10 10
1111111111100000000110110101011010000101100011000110101001011010011101
101000010110001000011111111111